<?xml version="1.0" encoding="UTF-8"?>
<svg id="b" data-name="Capa 2" xmlns="http://www.w3.org/2000/svg" viewBox="0 0 84.2339 43.156">
  <defs>
    <style>
      .k {
        fill: #fff;
      }
    </style>
  </defs>
  <g id="c" data-name="Layer 1">
    <g>
      <g>
        <path class="k" d="m1.8223,29.5783h5.7666l-.2246,1.3359H3.0581l-.4619,2.5835h3.6821l-.2246,1.2983h-3.6821l-.6489,3.6943H.2495l1.5728-8.9121Z"/>
        <path class="k" d="m9.9062,29.5783h1.4731l-1.3359,7.5269h3.7822l-.25,1.3853h-5.2422l1.5728-8.9121Z"/>
        <path class="k" d="m19.9751,29.5783h1.5977l1.7598,8.9121h-1.5723l-.2998-1.8721h-3.8193l-.9609,1.8721h-1.6104l4.9053-8.9121Zm1.2607,5.6919l-.6865-4.3062-2.2217,4.3062h2.9082Z"/>
        <path class="k" d="m28.3081,38.7278c-2.2588-.0249-3.3701-1.0112-3.0205-3.083l1.4355.0122c-.1997,1.1611.312,1.7603,1.71,1.7725,1.2607.0127,2.0718-.4619,2.2344-1.3481.374-2.1714-5.2549-.7988-4.6182-4.2559.2866-1.5356,1.4351-2.4966,3.6694-2.4839,2.4961.0122,3.2329,1.0859,2.9204,2.8833l-1.4478-.0254c.1499-.7861.0625-1.5352-1.5352-1.5474-1.4604-.0127-2.0347.6113-2.1592,1.2979-.3872,2.147,5.2422.7866,4.6304,4.2563-.2993,1.6978-1.585,2.5337-3.8193,2.5215Z"/>
        <path class="k" d="m35.9546,29.5783h1.4727l-.6489,3.6323h3.9067l.6494-3.6323h1.4854l-1.5854,8.9121h-1.4727l.6865-3.9067h-3.9067l-.6865,3.9067h-1.4731l1.5728-8.9121Z"/>
        <path class="k" d="m44.0132,38.4905l1.6099-9.1118h3.5698c3.0454,0,3.9194.7241,3.5698,2.6714-.1621.8862-.5742,1.5103-1.4355,1.8848.9238.4243,1.1108,1.1733.9487,2.1719-.3369,1.897-.9858,2.3965-4.5059,2.3965h-2.8833v-.0127h-.8735Zm3.4199-2.147h.4741c.8862,0,1.3604-.0874,1.4854-.7988.1123-.5864-.1499-.6738-1.0361-.6738h-.6611l-.2622,1.4727Zm.6113-3.4321h.4619c.749,0,1.186-.0874,1.3105-.7739.0874-.5117-.1245-.5991-.8735-.5991h-.6616l-.2373,1.373Z"/>
        <path class="k" d="m57.4136,29.3786h3.6699l1.2979,9.1118h-3.2578l-.0747-1.0361h-2.4341l-.4365,1.0361h-3.2827l4.5181-9.1118Zm1.4731,5.8667l-.1997-2.6089-1.1235,2.6089h1.3232Z"/>
        <path class="k" d="m67.7061,38.7649c-2.7085,0-4.144-1.1479-3.4448-5.0425.6489-3.6943,2.2466-4.6182,4.7803-4.6182,2.4717,0,4.0068.8862,3.4326,4.1191h-2.958c.1997-1.2607-.0376-1.5356-.6865-1.5356-.562,0-1.1611.3745-1.5229,2.0347-.4116,1.8975-.2119,2.459.6118,2.459.6738,0,1.0605-.187,1.373-1.6602h2.9702c-.5864,3.3325-2.0967,4.2437-4.5557,4.2437Z"/>
        <path class="k" d="m75.4644,29.3786h3.0454l-.624,3.5449,2.7588-3.5449h3.3823l-3.3203,3.7446,1.71,5.3672h-3.1699l-.7866-2.8335-1.2979,1.4604-.0127-.0249-.2495,1.3979h-3.0454l1.6099-9.1118Z"/>
      </g>
      <g id="d" data-name="g3015">
        <g id="e" data-name="g3021">
          <path id="f" data-name="path3023" class="k" d="m13.5434,8.4538c0-2.3524-1.8926-4.2469-4.2068-4.2469h-2.0862v8.4563h2.0862c2.3142,0,4.2068-1.8957,4.2068-4.2093m9.49,16.8581h-7.6581l-6.08-8.4375h-2.0448v8.4193H.5013V0h9.6685c5.5738,0,10.1234,3.7902,10.1234,8.4538,0,2.8442-1.7441,5.3846-4.3985,6.9389l7.1388,9.9191"/>
        </g>
        <g id="g" data-name="g3025">
          <path id="h" data-name="path3027" class="k" d="m30.6449,9.9717c-1.7823,0-3.2984,2.4226-3.2984,5.4216s1.5161,5.4247,3.2984,5.4247c1.8237,0,3.3373-2.4257,3.3373-5.4247s-1.5136-5.4216-3.3373-5.4216m10.3884,5.4216c0,5.7292-4.6592,10.3169-10.3884,10.3169s-10.352-4.5877-10.352-10.3169c0-5.7248,4.6247-10.3151,10.352-10.3151s10.3884,4.5903,10.3884,10.3151"/>
        </g>
        <g id="i" data-name="g3029">
          <path id="j" data-name="path3031" class="k" d="m56.8714,5.4978l-7.7747,7.7734v-7.7991h-6.7479v19.8213h6.7479v-8.0403l8.1167,8.0403h8.4933l-10.3144-10.3157,8.5434-8.5402v11.7629c0,3.9055,2.3487,7.5097,8.2633,7.5097,2.8079,0,5.3846-1.5925,6.637-3.0334l3.0341,2.6168h1.4403V5.4978h-6.7479v12.8166c-.7599,1.3263-1.8187,2.1601-3.4551,2.1601-1.6602,0-2.422-.9842-2.422-4.1323V5.4978s-13.814,0-13.814,0Z"/>
        </g>
      </g>
    </g>
  </g>
</svg>